<svg width="41" height="41" fill="none" xmlns="http://www.w3.org/2000/svg"><path d="M33.705 38.836a.789.789 0 10-.002 1.578.789.789 0 00.002-1.578zm-.033-32.883h-5.314c-4.137 0-7.502 3.366-7.502 7.502v4.485h-4.205a.79.79 0 00-.79.79v6.072c0 .436.354.79.79.79h4.205v13.244H2.368a.79.79 0 01-.79-.79V2.369a.79.79 0 01.79-.79h1.579a.79.79 0 100-1.578H2.368A2.37 2.37 0 000 2.368v35.678a2.37 2.37 0 002.368 2.368h19.278a.79.79 0 00.789-.789V24.802a.79.79 0 00-.79-.79h-4.204v-4.494h4.205a.79.79 0 00.789-.79v-5.273a5.93 5.93 0 015.923-5.923h4.525v4.494h-4.525c-.774 0-1.429.654-1.429 1.429v5.274c0 .436.354.79.79.79h5.053l-.591 4.494h-4.462a.79.79 0 00-.79.79v14.822c0 .436.354.79.79.79h2.434a.79.79 0 100-1.58h-1.645V25.592h4.365a.79.79 0 00.782-.686l.8-6.073a.789.789 0 00-.783-.892h-5.164v-4.335h5.164a.79.79 0 00.79-.79V6.744a.79.79 0 00-.79-.79z" fill="#9A5757"/><path d="M38.047 0H10.262a.79.79 0 100 1.579h27.785a.79.79 0 01.789.789v35.678a.79.79 0 01-.79.79h-1.578a.79.79 0 100 1.578h1.578a2.37 2.37 0 002.368-2.367V2.367A2.37 2.37 0 0038.047 0zM7.104 1.579a.79.79 0 100-1.579.789.789 0 100 1.579z" fill="#9A5757"/></svg>