<svg width="41" height="41" fill="none" xmlns="http://www.w3.org/2000/svg"><path d="M28.989.341H12.254C5.727.341.415 5.653.415 12.181v16.735c0 6.528 5.312 11.84 11.84 11.84H28.99c6.528 0 11.84-5.312 11.84-11.84V12.18C40.83 5.652 35.518.34 28.99.34zM39.25 28.916c0 5.658-4.603 10.261-10.261 10.261H12.254c-5.658 0-10.261-4.603-10.261-10.261V12.18c0-5.658 4.603-10.261 10.261-10.261H28.99c5.658 0 10.261 4.603 10.261 10.261v16.735z" fill="#9A5757"/><path d="M28.989 3.814H12.254c-4.613 0-8.367 3.754-8.367 8.367v16.735c0 4.613 3.754 8.367 8.367 8.367h4.816a.79.79 0 100-1.579h-4.816a6.796 6.796 0 01-6.788-6.788V12.18a6.796 6.796 0 016.788-6.788H28.99a6.796 6.796 0 016.788 6.788v16.735a6.796 6.796 0 01-6.788 6.788h-4.763a.79.79 0 100 1.579h4.763c4.613 0 8.367-3.754 8.367-8.367V12.18c0-4.613-3.754-8.367-8.367-8.367z" fill="#9A5757"/><path d="M21.18 35.935a.795.795 0 00-.558-.23.795.795 0 00-.558.23.795.795 0 00-.232.558.793.793 0 00.79.79.795.795 0 00.558-.232.795.795 0 00.231-.558.795.795 0 00-.231-.558zm-6.887-23.303a.79.79 0 00-1.115-.036l-.035.033a.79.79 0 101.083 1.148l.031-.029a.79.79 0 00.036-1.116z" fill="#9A5757"/><path d="M20.622 9.656c-1.734 0-3.46.417-4.99 1.207a.79.79 0 00.724 1.403 9.211 9.211 0 014.265-1.032c5.136 0 9.315 4.179 9.315 9.315 0 5.135-4.179 9.314-9.314 9.314-5.136 0-9.315-4.179-9.315-9.314 0-1.612.418-3.2 1.209-4.593a.79.79 0 10-1.373-.78A10.896 10.896 0 009.73 20.55c0 6.006 4.886 10.893 10.893 10.893 6.006 0 10.893-4.887 10.893-10.893 0-6.007-4.887-10.893-10.893-10.893z" fill="#9A5757"/><path d="M20.622 13.445a7.112 7.112 0 00-7.104 7.104 7.112 7.112 0 007.104 7.104 7.112 7.112 0 007.104-7.104 7.112 7.112 0 00-7.104-7.104zm0 12.63a5.532 5.532 0 01-5.526-5.526 5.532 5.532 0 015.526-5.526 5.532 5.532 0 015.525 5.526 5.532 5.532 0 01-5.525 5.525zM30.981 7.189c-1.654 0-3 1.346-3 3 0 1.653 1.346 2.999 3 2.999s3-1.346 3-3a3.003 3.003 0 00-3-2.999zm0 4.42a1.422 1.422 0 010-2.841c.784 0 1.421.637 1.421 1.42 0 .784-.637 1.421-1.42 1.421z" fill="#9A5757"/></svg>