<svg width="75" height="85" fill="none" xmlns="http://www.w3.org/2000/svg"><path d="M52.784 20.096h-4.35a1.01 1.01 0 000 2.019h4.35a1.01 1.01 0 100-2.018zm-9.001 0a1.01 1.01 0 100 2.019h.87a1.01 1.01 0 100-2.018h-.87zm-23.807 0a1.009 1.009 0 100 2.019h19.976a1.01 1.01 0 100-2.018H19.976zm32.808 8.368H36.793a1.01 1.01 0 100 2.019h15.991a1.01 1.01 0 100-2.019zm-20.006 0a1.009 1.009 0 100 2.019h.257a1.01 1.01 0 100-2.019h-.257zm-3.679 0h-9.123a1.009 1.009 0 100 2.019h9.123a1.01 1.01 0 000-2.019zm23.685 8.368h-1.438a1.01 1.01 0 100 2.018h1.44a1.01 1.01 0 000-2.018h-.002zm-5.199 0H31.324a1.01 1.01 0 100 2.018h16.261a1.01 1.01 0 100-2.018zM19.976 38.85h7.538a1.01 1.01 0 000-2.018h-7.538a1.009 1.009 0 100 2.018zm24.378 6.35h-3.515a1.01 1.01 0 000 2.018h3.515a1.01 1.01 0 000-2.019zm-6.22 1.009a1.009 1.009 0 00-1.01-1.01h-8.75a1.009 1.009 0 100 2.019h8.75a1.01 1.01 0 001.01-1.01zm-18.158 1.009h4.699a1.01 1.01 0 000-2.019h-4.7a1.009 1.009 0 100 2.019zm23.442 6.349H38.72a1.01 1.01 0 000 2.019h4.698a1.009 1.009 0 100-2.019zm-18.726 2.019h10.32a1.01 1.01 0 100-2.019h-10.32a1.009 1.009 0 100 2.019zm-3.708-2.019h-1.008a1.01 1.01 0 000 2.019h1.008a1.01 1.01 0 000-2.019zm21.923-39.819h1.085a1.01 1.01 0 000-2.02h-1.084a1.01 1.01 0 000 2.02zm-16.841 0h13.169a1.01 1.01 0 000-2.02h-13.17a1.01 1.01 0 000 2.02zm-6.262 0h2.563a1.01 1.01 0 000-2.02h-2.563a1.01 1.01 0 000 2.02zm23.615 48.187H32.398a1.009 1.009 0 100 2.018h11.02a1.01 1.01 0 100-2.018zm-14.83 0H24.52a1.01 1.01 0 000 2.018h4.069a1.01 1.01 0 000-2.018zm-7.939 0h-.674a1.01 1.01 0 000 2.018h.674a1.01 1.01 0 000-2.018zM16.022 6.903a1.009 1.009 0 00-1.01 1.01v1.059a1.01 1.01 0 102.019 0v-1.06a1.01 1.01 0 00-1.01-1.009zm0 4.927a1.009 1.009 0 00-1.01 1.01v16.653a1.01 1.01 0 102.019 0V12.84a1.01 1.01 0 00-1.01-1.01zm51.74 38.725L59.5 58.816l-2.822-2.821a1.01 1.01 0 00-1.427 1.427l3.535 3.535a1.009 1.009 0 001.428 0l8.975-8.975a1.01 1.01 0 00-1.428-1.427z" fill="#000"/><path d="M62.87 42.988l-.089-.002v-27.49a2.782 2.782 0 00-.794-1.952L49.594.841A2.806 2.806 0 0047.597 0H12.948a2.796 2.796 0 00-2.791 2.794v2.581H7.602A2.796 2.796 0 004.811 8.17v1.506h-2.02A2.796 2.796 0 000 12.47v69.177a2.796 2.796 0 002.791 2.794h47.22a2.796 2.796 0 002.792-2.794v-1.685h2.02a2.796 2.796 0 002.79-2.795v-2.222h2.377a2.796 2.796 0 002.791-2.794v-3.624a12.784 12.784 0 00.09-25.539zM49.06 3.186l10.353 10.61h-5.36a5.004 5.004 0 01-4.992-5.003V3.186zm1.724 78.461a.776.776 0 01-.773.776H2.791a.775.775 0 01-.772-.776V12.47a.775.775 0 01.772-.776h2.02v65.473a2.796 2.796 0 002.791 2.795h43.182v1.685zm4.81-4.48a.775.775 0 01-.772.776H7.602a.775.775 0 01-.773-.776V8.17a.775.775 0 01.773-.776h2.555V72.15a2.796 2.796 0 002.791 2.794h42.647v2.222zM61.532 66.5A10.758 10.758 0 0152.6 50.934a.999.999 0 00-.195-1.151 1.009 1.009 0 00-1.615.258 12.773 12.773 0 009.973 18.413v3.697a.775.775 0 01-.772.775H12.948a.775.775 0 01-.773-.775V2.794a.775.775 0 01.773-.775h34.094v6.774a7.025 7.025 0 007.012 7.022h6.709v27.242c-1.76.2-3.458.767-4.986 1.663a1.008 1.008 0 001.02 1.739 10.764 10.764 0 114.733 20.04z" fill="#000"/></svg>