<svg width="127" height="37" fill="none" xmlns="http://www.w3.org/2000/svg"><path d="M4.424 36c-.992 0-1.824-.336-2.496-1.008C1.256 34.32.92 33.488.92 32.496V12h4.512v17.76c0 .448.176.848.528 1.2.352.352.752.528 1.2.528h2.784V12h4.512v24H4.424zm13.418 0V1.104L22.354.096V36h-4.512zm8.344 0V1.056L30.698.048V12h5.712l-1.056 4.512h-4.656V36h-4.512zm11.672 0V12H47.89c.96 0 1.776.352 2.447 1.056.704.672 1.056 1.488 1.056 2.448v5.232l-4.511-1.008v-1.44c0-.48-.176-.896-.529-1.248a1.554 1.554 0 00-1.2-.528H42.37V36h-4.512zm17.52 0c-.96 0-1.793-.336-2.497-1.008-.672-.672-1.008-1.504-1.008-2.496v-7.248c0-.96.336-1.776 1.008-2.448.704-.704 1.536-1.056 2.496-1.056h3.744c.512 0 .928-.16 1.248-.48.352-.352.528-.768.528-1.248V18.24c0-.48-.176-.88-.528-1.2-.32-.352-.736-.528-1.248-.528h-5.184L54.945 12h6.96c.96 0 1.776.352 2.448 1.056.704.672 1.056 1.488 1.056 2.448V36H55.377zm2.735-4.512h2.784v-5.232h-2.784c-.48 0-.896.176-1.248.528-.32.32-.48.72-.48 1.2v1.776c0 .48.16.896.48 1.248.352.32.768.48 1.248.48zM72.323 36c-.896 0-1.696-.336-2.4-1.008-.704-.672-1.056-1.488-1.056-2.448V5.856c0-.928.352-1.728 1.056-2.4.704-.704 1.504-1.056 2.4-1.056h10.896c.992 0 1.808.352 2.448 1.056.672.672 1.008 1.472 1.008 2.4v6.24l-4.464 1.008V8.592c0-.448-.16-.848-.48-1.2-.288-.352-.688-.528-1.2-.528h-5.472c-.448 0-.848.176-1.2.528-.352.352-.528.752-.528 1.2v21.216c0 .512.176.928.528 1.248.352.32.752.48 1.2.48h5.472c.512 0 .912-.16 1.2-.48.32-.32.48-.736.48-1.248v-3.504l4.464-1.056v7.296c0 .96-.336 1.776-1.008 2.448-.64.672-1.456 1.008-2.448 1.008H72.323zm16.467.048l6.768-33.6h4.368l6.672 33.6h-4.464l-1.296-6.288h-6.384l-1.2 6.288H88.79zm6.528-10.704h4.752l-2.304-11.952-2.448 11.952zM109.083 36V2.4h14.4c.928 0 1.728.336 2.4 1.008.672.672 1.008 1.488 1.008 2.448v10.32c0 .96-.336 1.776-1.008 2.448-.672.672-1.472 1.008-2.4 1.008h-1.008L126.891 36h-4.416l-4.464-16.368h-4.464V36h-4.464zm4.464-20.832h7.2c.448 0 .848-.16 1.2-.48.352-.352.528-.768.528-1.248V8.592c0-.48-.176-.88-.528-1.2-.352-.352-.752-.528-1.2-.528h-7.2v8.304z" fill="#9A5757"/></svg>