<svg width="93" height="93" fill="none" xmlns="http://www.w3.org/2000/svg"><path d="M91.45 18.6h-5.403c.46-1.509.713-3.073.753-4.65a13.95 13.95 0 10-27.9 0c.04 1.577.293 3.141.753 4.65H21.576A10.85 10.85 0 000 20.15v62A10.862 10.862 0 0010.85 93h80.6A1.55 1.55 0 0093 91.45v-71.3a1.55 1.55 0 00-1.55-1.55zM72.85 3.1A10.862 10.862 0 0183.7 13.95c0 6.986-7.792 18.135-10.85 22.247C69.79 32.085 62 20.942 62 13.95A10.863 10.863 0 0172.85 3.1zM3.1 20.15a7.75 7.75 0 0115.5 0v54.405a10.824 10.824 0 00-15.5.01V20.15zM89.9 89.9H10.85a7.75 7.75 0 117.75-7.75 1.55 1.55 0 103.1 0V21.7h39.009a84.823 84.823 0 0010.93 18.019 1.552 1.552 0 002.422 0A84.819 84.819 0 0084.99 21.7h4.91v68.2z" fill="#000"/><path d="M80.6 13.95a7.75 7.75 0 10-7.75 7.75 7.76 7.76 0 007.75-7.75zm-12.4 0a4.65 4.65 0 119.3 0 4.65 4.65 0 01-9.3 0zM44.95 40.3V27.9h-3.1v10.85H27.9v3.1h15.5a1.55 1.55 0 001.55-1.55zm7.75 1.55h13.95v-3.1h-12.4V27.9h-3.1v12.4a1.55 1.55 0 001.55 1.55zm15.5 6.2H52.7a1.55 1.55 0 00-1.55 1.55V62a1.55 1.55 0 001.55 1.55h15.5A1.55 1.55 0 0069.75 62V49.6a1.55 1.55 0 00-1.55-1.55zm-1.55 12.4h-12.4v-9.3h12.4v9.3zM44.95 62V49.6a1.55 1.55 0 00-1.55-1.55H27.9v3.1h13.95v9.3H27.9v3.1h15.5A1.55 1.55 0 0044.95 62zM68.2 72.85H27.9v3.1h38.75v7.75h3.1v-9.3a1.55 1.55 0 00-1.55-1.55zm7.75-23.25V62a1.55 1.55 0 001.55 1.55h6.2v-3.1h-4.65v-9.3h4.65v-3.1h-6.2a1.55 1.55 0 00-1.55 1.55zm0 24.8v9.3h3.1v-7.75h4.65v-3.1h-6.2a1.55 1.55 0 00-1.55 1.55z" fill="#000"/></svg>