<svg width="60" height="95" fill="none" xmlns="http://www.w3.org/2000/svg"><path d="M51.247 0H8.296C3.72 0 0 3.721 0 8.295V21.2c-.026 1.795 2.792 1.794 2.765 0v-8.11H22.49c1.794.026 1.793-2.792 0-2.766H2.765V8.295a5.537 5.537 0 015.53-5.53h42.952c3.05 0 5.53 2.481 5.53 5.53v2.028H28.942c-1.795-.026-1.794 2.792 0 2.765h27.835v61.939H2.765V27.65c.027-1.794-2.791-1.793-2.765 0v58.436c0 4.574 3.721 8.296 8.296 8.296h36.5c1.794.026 1.793-2.792 0-2.765h-36.5a5.536 5.536 0 01-5.53-5.53v-8.296h54.011v8.295c0 3.05-2.48 5.53-5.53 5.53-1.794-.026-1.793 2.792 0 2.766 4.574 0 8.295-3.722 8.295-8.296V8.295c0-4.574-3.72-8.295-8.295-8.295z" fill="#000"/><path d="M25.624 84.705a4.153 4.153 0 004.148 4.148 4.153 4.153 0 004.147-4.148 4.153 4.153 0 00-4.147-4.148 4.153 4.153 0 00-4.148 4.148zm5.53 0c0 .762-.62 1.383-1.383 1.383a1.384 1.384 0 01.001-2.766c.762 0 1.382.62 1.382 1.383zM50.51 45.486c0-11.257-9.345-20.415-20.83-20.415-11.487 0-20.831 9.158-20.831 20.415 0 11.258 9.344 20.416 20.83 20.416 11.486 0 20.83-9.159 20.83-20.416zM35.09 62.328c1.24-1.336 2.314-2.932 3.188-4.764.247-.517.474-1.049.685-1.592 1.308.446 2.59.992 3.837 1.635a18.168 18.168 0 01-7.71 4.721zm9.508-6.9a31.266 31.266 0 00-4.771-2.083 29.65 29.65 0 00.97-6.338h6.88a17.288 17.288 0 01-3.079 8.421zm0-19.884a17.283 17.283 0 013.101 8.698h-6.895a29.571 29.571 0 00-1-6.607 31.298 31.298 0 004.794-2.09zM42.8 33.366a28.493 28.493 0 01-3.868 1.645c-.203-.515-.42-1.02-.654-1.51-.902-1.89-2.016-3.531-3.306-4.892a18.167 18.167 0 017.828 4.757zM31.154 28.93c2.164 1.554 3.912 3.929 5.11 6.848a28.43 28.43 0 01-5.11.713V28.93zm0 10.33a31.207 31.207 0 005.998-.854 26.74 26.74 0 01.885 5.837h-6.883v-4.984zm0 7.748h6.875a26.7 26.7 0 01-.855 5.567 31.224 31.224 0 00-6.02-.86v-4.707zm0 7.476a28.35 28.35 0 015.143.722c-1.198 2.956-2.959 5.362-5.143 6.93v-7.652zM24.53 28.567c-1.327 1.367-2.473 3.02-3.4 4.925-.232.479-.448.971-.65 1.474a28.5 28.5 0 01-3.86-1.664 18.167 18.167 0 017.91-4.735zm-9.719 6.905a31.302 31.302 0 004.778 2.112 29.08 29.08 0 00-1.034 6.658H11.66a17.285 17.285 0 013.152-8.77zm0 20.028a17.292 17.292 0 01-3.13-8.493h6.882a29.04 29.04 0 001.001 6.39 31.268 31.268 0 00-4.753 2.103zm1.81 2.17a28.518 28.518 0 013.826-1.653c.212.531.439 1.051.684 1.556.898 1.847 2.004 3.456 3.28 4.797a18.162 18.162 0 01-7.79-4.7zm11.768 4.494c-2.24-1.562-4.048-3.967-5.278-6.928a28.456 28.456 0 015.278-.753v7.681zm0-10.45a31.213 31.213 0 00-6.176.898 26.188 26.188 0 01-.883-5.605h7.059v4.707zm0-7.472h-7.066c.091-2.076.404-4.052.913-5.876 2.023.503 4.084.8 6.153.892v4.984zm0-7.752a28.453 28.453 0 01-5.244-.745c1.23-2.923 3.024-5.297 5.244-6.844v7.589zM33.55 6.175c0-.763-.618-1.382-1.382-1.382H22.95a1.382 1.382 0 100 2.765h9.217c.764 0 1.382-.619 1.382-1.383zm3.226 1.383a1.383 1.383 0 100-2.765 1.383 1.383 0 000 2.765z" fill="#000"/></svg>