<svg width="66" height="59" fill="none" xmlns="http://www.w3.org/2000/svg"><path d="M42.22 12.076a23.303 23.303 0 00-11.847 3.23 23.452 23.452 0 00-6.586 5.806v-4.547c0-1.065-.866-1.93-1.93-1.93H7.317c-1.064 0-1.93.866-1.93 1.93v10.123H1.932c-.784 0-1.483.468-1.783 1.192-.3.723-.136 1.549.418 2.103l5.54 5.54a.96.96 0 001.357-1.359L1.92 28.625c0-.005.005-.016.012-.016h4.417c.53 0 .96-.43.96-.96V16.564a.01.01 0 01.01-.01h14.54a.01.01 0 01.009.01v11.084c0 .53.43.96.96.96l4.42-.004c.004.004.008.015.003.02L14.594 41.282c-.003.003-.01.003-.013 0l-4.597-4.596a.96.96 0 00-1.357 1.358l4.596 4.595c.364.365.849.566 1.364.566.516 0 1-.201 1.365-.566l3.28-3.279a23.253 23.253 0 007.163 13.177 23.253 23.253 0 0015.825 6.189c4.088 0 8.11-1.073 11.633-3.103a.96.96 0 00-.96-1.664 21.396 21.396 0 01-10.673 2.847c-10.889 0-20.153-8.375-21.286-19.148l.813-.814c.743 10.647 9.641 19.082 20.474 19.082a.96.96 0 100-1.92c-10.259 0-18.605-8.346-18.605-18.605a.954.954 0 00-.07-.356l2.663-2.663a16.317 16.317 0 00-.282 3.02c0 8.983 7.31 16.292 16.294 16.292 8.983 0 16.292-7.309 16.292-16.293 0-2.372-.5-4.661-1.485-6.803a.96.96 0 00-1.745.803 14.254 14.254 0 011.31 6c0 7.925-6.448 14.373-14.373 14.373-7.925 0-14.372-6.448-14.372-14.373 0-7.925 6.447-14.372 14.373-14.372a14.29 14.29 0 0111.35 5.555.96.96 0 101.514-1.18c-3.113-4-7.802-6.296-12.865-6.296-5.907 0-11.089 3.16-13.946 7.878a1.927 1.927 0 00-1.03-.298h-3.457v-2.167c3.843-6.497 10.881-10.524 18.433-10.524 11.803 0 21.405 9.602 21.405 21.404 0 6.453-2.87 12.499-7.875 16.586a.96.96 0 101.215 1.487 23.25 23.25 0 008.58-18.073c0-12.861-10.463-23.325-23.325-23.325z" fill="#9A5757"/><path d="M42.22 14.877a.96.96 0 100 1.92c10.259 0 18.605 8.345 18.605 18.604a.96.96 0 101.92 0c0-11.317-9.207-20.525-20.525-20.525z" fill="#9A5757"/><path d="M42.22 21.748c-7.528 0-13.652 6.125-13.652 13.653 0 7.528 6.124 13.653 13.652 13.653S55.873 42.929 55.873 35.4c0-7.528-6.124-13.653-13.653-13.653zm0 25.386c-6.469 0-11.732-5.264-11.732-11.733 0-6.47 5.263-11.732 11.732-11.732 6.47 0 11.733 5.263 11.733 11.732 0 6.47-5.263 11.733-11.733 11.733z" fill="#9A5757"/><path d="M43.18 34.839v-3.814c.942.268 1.625.911 1.625 1.642a.96.96 0 101.92 0c0-1.767-1.52-3.248-3.545-3.61v-.745a.96.96 0 10-1.92 0v.745c-2.024.362-3.544 1.843-3.544 3.61 0 1.175 1.274 2.016 3.544 3.296v3.813c-.941-.267-1.624-.91-1.624-1.64a.96.96 0 10-1.92 0c0 1.766 1.52 3.247 3.544 3.609v.745a.96.96 0 101.92 0v-.745c2.025-.362 3.545-1.843 3.545-3.61 0-1.174-1.274-2.017-3.545-3.296zm-1.92-1.093c-.74-.44-1.426-.893-1.62-1.174.056-.69.72-1.291 1.62-1.548v2.722zm1.92 6.032v-2.722c.74.44 1.427.893 1.62 1.174-.055.691-.719 1.292-1.62 1.548zM17.543 5.546a.96.96 0 00-.96.96v6.005a.96.96 0 101.92 0V6.506a.96.96 0 00-.96-.96zM14.587 0a.96.96 0 00-.96.96v11.55a.96.96 0 101.92 0V.96a.96.96 0 00-.96-.96zm-2.956 5.546a.96.96 0 00-.96.96v6.005a.96.96 0 101.92 0V6.506a.96.96 0 00-.96-.96z" fill="#9A5757"/></svg>