<svg width="66" height="66" fill="none" xmlns="http://www.w3.org/2000/svg"><path d="M44.402 19.862a1.28 1.28 0 10-.001 2.56 1.28 1.28 0 00.001-2.56zm-23.26 23.26a1.28 1.28 0 10-.001 2.56 1.28 1.28 0 000-2.56z" fill="#9A5757"/><path d="M63.953 7.876a1.28 1.28 0 00-1.198.345l-5.308 5.35h-2.544l-2.8-2.903v-2.58l5.23-5.309A1.28 1.28 0 0056.83.668 12.77 12.77 0 0052.742 0c-4.17 0-7.957 1.944-10.393 5.334-2.28 3.174-2.982 7.063-1.975 10.785l-9.43 9.43-15.71-15.746v-3.09c0-.45-.236-.868-.622-1.099L5.56.183a1.28 1.28 0 00-1.563.192l-3.62 3.62A1.281 1.281 0 00.183 5.56l5.43 9.052a1.28 1.28 0 001.097.622H9.8L25.513 30.98l-9.394 9.394c-3.722-1.006-7.613-.303-10.788 1.978C1.943 44.786 0 48.573 0 52.742c0 1.399.225 2.775.668 4.088a1.279 1.279 0 002.121.494l5.307-5.35h2.559l2.915 2.916v2.558l-5.35 5.307a1.28 1.28 0 00.494 2.122c1.313.443 2.69.667 4.087.667 4.17 0 7.957-1.943 10.39-5.331 2.282-3.175 2.985-7.066 1.98-10.788l7.544-7.544 1.728 1.877-.793.793a1.28 1.28 0 101.81 1.81l.719-.718 16.215 17.614.037.038c3 3 7.862 3.001 10.864 0 2.993-2.996 2.993-7.869 0-10.864a1.436 1.436 0 00-.04-.038L45.614 36.21l.71-.71a1.28 1.28 0 10-1.811-1.81l-.788.788-1.88-1.727 7.58-7.58c1.078.287 2.19.433 3.317.433 7.06 0 12.801-5.743 12.801-12.801 0-1.399-.224-2.774-.667-4.088a1.279 1.279 0 00-.923-.838zm-52.715 5.173a1.267 1.267 0 00-.905-.362l-2.896-.002L2.893 5.1 5.1 2.893l7.573 4.544v2.896c0 .339.135.664.374.904L29.134 27.36l-1.811 1.81-16.085-16.12zm32.563 24.972L61.502 54.26a5.13 5.13 0 01-.018 7.225 5.12 5.12 0 01-7.225.017L37.99 43.831l5.811-5.81zm-1.888-1.733l-5.658 5.658-1.729-1.877 5.506-5.507 1.881 1.726zm10.83-13.245c-1.12 0-2.222-.18-3.273-.534a1.283 1.283 0 00-1.313.308l-25.34 25.34a1.28 1.28 0 00-.308 1.314c1.064 3.16.555 6.53-1.397 9.248-1.947 2.71-4.976 4.265-8.31 4.265-.375 0-.748-.02-1.117-.06l4.066-4.035a1.28 1.28 0 00.379-.908v-3.622c0-.34-.135-.665-.375-.905l-3.665-3.665a1.28 1.28 0 00-.905-.375H7.563c-.341 0-.668.136-.909.378L2.62 53.858c-.04-.369-.06-.741-.06-1.116 0-3.335 1.554-6.364 4.264-8.31 2.718-1.953 6.089-2.462 9.25-1.398.46.156.969.036 1.313-.308l25.34-25.339a1.28 1.28 0 00.307-1.314c-1.064-3.16-.556-6.529 1.395-9.245 1.948-2.712 4.978-4.268 8.313-4.268.386 0 .77.022 1.15.064L49.91 6.665a1.28 1.28 0 00-.368.898v3.622c0 .332.128.65.359.889l3.537 3.665c.24.25.573.391.92.391h3.622c.342 0 .669-.136.91-.379l4.033-4.065c.04.369.06.741.06 1.116 0 5.647-4.594 10.241-10.24 10.241z" fill="#9A5757"/><path d="M39.876 23.857l-16.02 16.02a1.28 1.28 0 001.811 1.81l16.02-16.02a1.28 1.28 0 10-1.81-1.81zm16.178 34.008a1.28 1.28 0 101.807-1.814L46.322 44.55a1.28 1.28 0 00-1.808 1.813l11.54 11.503z" fill="#9A5757"/></svg>