<svg width="50" height="48" fill="none" xmlns="http://www.w3.org/2000/svg"><path d="M29.51 36.965a1.089 1.089 0 00-1.25 1.076v7.609H2.173V2.174h26.085v7.575c0 .544.392 1.033.924 1.11a1.089 1.089 0 001.25-1.077V1.087A1.09 1.09 0 0029.346 0H1.086A1.09 1.09 0 000 1.087v45.65c0 .597.49 1.087 1.087 1.087h28.26a1.09 1.09 0 001.086-1.087v-8.663c0-.543-.391-1.032-.924-1.109z" fill="#9A5757"/><path d="M49.682 23.151L38.813 12.282a1.092 1.092 0 00-1.532.022 1.097 1.097 0 000 1.51l9.01 9.01H13.076c-.533 0-1.011.37-1.098.903a1.085 1.085 0 001.076 1.272h33.248l-9.021 9.01a1.073 1.073 0 00-.022 1.533 1.073 1.073 0 001.554 0l10.87-10.87c.423-.402.423-1.097 0-1.521z" fill="#9A5757"/></svg>