<svg width="66" height="66" fill="none" xmlns="http://www.w3.org/2000/svg"><path d="M41.734 27.012a7.05 7.05 0 00-7.04-7.041h-9.602a1.28 1.28 0 00-1.28 1.28v11.522c0 .707.573 1.28 1.28 1.28h9.601a7.049 7.049 0 007.041-7.041zm-15.362-4.48h8.321c2.47 0 4.48 2.01 4.48 4.48 0 2.47-2.01 4.48-4.48 4.48h-8.321v-8.96z" fill="#9A5757"/><path d="M49.415 27.012c0-8.118-6.604-14.722-14.722-14.722H17.411a1.28 1.28 0 00-1.28 1.28v38.406c0 .706.573 1.28 1.28 1.28h7.68a1.28 1.28 0 001.28-1.28V41.734h8.322c8.118 0 14.722-6.604 14.722-14.722zM25.092 39.174a1.28 1.28 0 00-1.28 1.28v10.241H18.69V14.85h16.002c6.706 0 12.162 5.456 12.162 12.162s-5.456 12.162-12.162 12.162h-9.601zm7.681 26.372a1.28 1.28 0 100-2.56 1.28 1.28 0 000 2.56z" fill="#9A5757"/><path d="M60.425 0H5.12A5.127 5.127 0 000 5.12v55.305a5.127 5.127 0 005.12 5.12h21.892a1.28 1.28 0 000-2.56H5.12a2.563 2.563 0 01-2.56-2.56V5.12a2.563 2.563 0 012.56-2.56h55.304a2.563 2.563 0 012.56 2.56v55.304a2.563 2.563 0 01-2.56 2.56h-21.89a1.28 1.28 0 000 2.56h21.89a5.126 5.126 0 005.122-5.12V5.12A5.127 5.127 0 0060.425 0z" fill="#9A5757"/></svg>