<svg width="66" height="63" fill="none" xmlns="http://www.w3.org/2000/svg"><path d="M65.42 34.487a25.91 25.91 0 00-7.447-15.714 25.707 25.707 0 00-12.646-6.944V8.576a4.36 4.36 0 003.302-4.223c0-2.4-1.952-4.353-4.352-4.353h-9.218a4.358 4.358 0 00-4.353 4.353 4.36 4.36 0 003.302 4.223v3.262a25.706 25.706 0 00-12.607 6.935 25.99 25.99 0 00-2.173 2.467c-.033-.002-.065-.005-.097-.005h-9.123a1.28 1.28 0 000 2.56h7.478a25.658 25.658 0 00-2.272 4.921H1.281a1.28 1.28 0 000 2.56h13.21a26.028 26.028 0 00-.636 4.921h-5.66a1.28 1.28 0 000 2.56h5.701c.108 1.658.375 3.306.8 4.921H6.401a1.28 1.28 0 000 2.56h9.11a25.71 25.71 0 005.89 9.107 25.908 25.908 0 0015.729 7.449 25.922 25.922 0 0016.65-4.046 1.28 1.28 0 00-1.397-2.146c-9.161 5.965-21.43 4.675-29.172-3.067-9.085-9.085-9.085-23.867 0-32.951 9.084-9.085 23.866-9.085 32.95 0 7.733 7.732 9.03 19.99 3.084 29.146a1.28 1.28 0 102.147 1.395C64.57 46.233 66 40.324 65.42 34.487zM33.267 4.353c0-.988.804-1.792 1.792-1.792h9.218c.988 0 1.792.804 1.792 1.792s-.804 1.792-1.793 1.792H35.06a1.794 1.794 0 01-1.792-1.792zm3.302 7.045V8.706h6.198v2.688a26.081 26.081 0 00-6.198.004z" fill="#9A5757"/><path d="M57.068 53.16a1.283 1.283 0 00-1.28 1.279 1.284 1.284 0 001.28 1.28c.337 0 .666-.135.905-.375a1.29 1.29 0 00.375-.905 1.29 1.29 0 00-.375-.905 1.292 1.292 0 00-.905-.375zM39.687 17.2c-10.951 0-19.86 8.908-19.86 19.859 0 10.95 8.909 19.86 19.86 19.86 10.95 0 19.86-8.91 19.86-19.86s-8.91-19.86-19.86-19.86zm0 37.158c-9.54 0-17.3-7.76-17.3-17.3 0-9.538 7.76-17.298 17.3-17.298 9.539 0 17.299 7.76 17.299 17.299s-7.76 17.3-17.3 17.3z" fill="#9A5757"/><path d="M47.784 27.15l-6.34 6.341a3.954 3.954 0 00-1.758-.41c-.63 0-1.227.148-1.757.41l-2.838-2.838a1.28 1.28 0 00-1.81 1.81l2.837 2.839a3.952 3.952 0 00-.41 1.757 3.983 3.983 0 003.978 3.978 3.983 3.983 0 003.978-3.978c0-.63-.148-1.227-.41-1.757l6.155-6.155.186-.186a1.28 1.28 0 00-1.81-1.81zm-8.098 11.327a1.42 1.42 0 01-1.417-1.418 1.42 1.42 0 011.417-1.418 1.42 1.42 0 011.418 1.418 1.42 1.42 0 01-1.418 1.418zm13.688-2.683h-1.186a1.28 1.28 0 000 2.56h1.186a1.28 1.28 0 000-2.56zm-26.189-.031h-1.186a1.28 1.28 0 000 2.56h1.186a1.28 1.28 0 000-2.56zm12.517-9.926a1.28 1.28 0 001.28-1.28v-1.186a1.28 1.28 0 00-2.56 0v1.186c0 .707.573 1.28 1.28 1.28zM39.67 48.28a1.28 1.28 0 00-1.28 1.28v1.187a1.28 1.28 0 002.561 0V49.56a1.28 1.28 0 00-1.28-1.28zM1.28 43.678a1.29 1.29 0 00-.905.375 1.29 1.29 0 00-.375.905c0 .338.137.667.375.905s.568.375.905.375c.337 0 .667-.137.905-.375a1.29 1.29 0 00.375-.905 1.29 1.29 0 00-.375-.905 1.289 1.289 0 00-.905-.375z" fill="#9A5757"/></svg>