<svg width="51" height="66" fill="none" xmlns="http://www.w3.org/2000/svg"><path d="M50.12 23.14H37.505a7.656 7.656 0 001.044-3.865c0-4.249-3.457-7.705-7.706-7.705a7.687 7.687 0 00-5.785 2.623 7.687 7.687 0 00-5.784-2.623c-4.25 0-7.706 3.456-7.706 7.705 0 1.408.382 2.727 1.044 3.864H0v11.554h3.857v30.853h42.406V34.693h3.856V23.14zm-19.275-7.73a3.869 3.869 0 013.864 3.865 3.869 3.869 0 01-3.864 3.865H26.98v-3.865a3.869 3.869 0 013.865-3.865zm-3.85 15.442h-3.872V26.98h3.873v3.872zM15.41 19.276a3.87 3.87 0 013.865-3.865 3.869 3.869 0 013.864 3.865v3.864h-3.864a3.869 3.869 0 01-3.865-3.864zM3.84 30.853V26.98h15.443v3.872H3.84zm3.857 30.852V34.693h11.586v27.012H7.697zm15.426 0V34.693h3.873v27.012h-3.873zm19.3 0H30.835V34.693h11.586v27.012zm3.856-30.852H30.837V26.98h15.442v3.872zM10.46 4.081l3.368-1.843 3.088 5.642-3.368 1.843-3.088-5.642zm22.739 3.817l3.087-5.642L39.655 4.1l-3.088 5.64-3.368-1.843zM23.14 0h3.84v4.753h-3.84V0zm20.482 11.606l3.36-3.36 2.715 2.716-3.36 3.36-2.715-2.716zM.64 10.957l2.715-2.715 3.36 3.36L4 14.317l-3.36-3.36z" fill="#9A5757"/></svg>