<svg width="42" height="42" fill="none" xmlns="http://www.w3.org/2000/svg"><path d="M35.149 27.74l-.4-.655a17.254 17.254 0 00-2.816-3.485l-1.34-1.275a.35.35 0 01-.045-.457l1.829-2.606c.264-.376.507-.771.723-1.176l1.563-2.923c.272-.51.257-1.11-.04-1.606a1.617 1.617 0 00-1.396-.792l-3.382-.004h-.002c-.709 0-1.35.419-1.635 1.068l-.358.816a20.183 20.183 0 01-3.709 5.646v-5.959c0-.867-.705-1.572-1.572-1.572h-4.79a1.428 1.428 0 00-1.159 2.258l.336.467c.328.458.502.997.502 1.56V21.4a17.356 17.356 0 01-1.919-2.689c-.932-1.64-1.6-3.553-1.916-4.547a2.005 2.005 0 00-1.918-1.404H8.28a1.52 1.52 0 00-1.22.606 1.518 1.518 0 00-.253 1.34l.64 2.267c.39 1.39.929 2.743 1.6 4.022a.79.79 0 101.397-.732 19.317 19.317 0 01-1.478-3.718l-.622-2.206h3.362a.43.43 0 01.412.302c.335 1.053 1.045 3.084 2.049 4.85.824 1.449 1.823 2.656 2.516 3.413.38.416.964.552 1.489.348.525-.204.865-.7.865-1.263v-4.943a4.23 4.23 0 00-.799-2.482l-.162-.225h4.486v6.33a1.352 1.352 0 001.917 1.232l.326-.149a1.26 1.26 0 00.396-.283 21.764 21.764 0 004.095-6.19l.358-.816a.206.206 0 01.19-.124l3.381.004c.012 0 .03 0 .044.025.015.025.007.04.001.05l-1.562 2.924a9.88 9.88 0 01-.623 1.013l-1.829 2.606a1.92 1.92 0 00.25 2.508l1.338 1.275a15.685 15.685 0 012.558 3.165l.4.655c.01.015.04.063.003.128-.036.065-.093.065-.111.065h-2.92c-.375 0-.74-.154-1.002-.423l-2.919-3.002a5.011 5.011 0 00-2.525-1.405 1.447 1.447 0 00-1.223.288c-.345.277-.543.69-.543 1.133v2.949a.46.46 0 01-.46.46c-2.262 0-4.498-.757-6.295-2.131a19.34 19.34 0 01-2.053-1.815.79.79 0 00-1.127 1.105c.69.704 1.437 1.365 2.22 1.964a12.006 12.006 0 007.255 2.456 2.042 2.042 0 002.039-2.039v-2.79c.601.16 1.145.478 1.58.926l2.92 3.002a2.993 2.993 0 002.133.901h2.92a1.708 1.708 0 001.455-2.597z" fill="#9A5757"/><path d="M11.884 22.591l-.008-.012a.79.79 0 00-1.284.92l.006.008.645-.456-.642.46a.788.788 0 101.283-.92zM17 35.73h-6.433a.79.79 0 000 1.578H17a.79.79 0 000-1.578zm3.591 0h-.01a.79.79 0 000 1.578h.01a.79.79 0 100-1.578z" fill="#9A5757"/><path d="M36.034.683H6.039a5.216 5.216 0 00-5.21 5.21v29.995a5.216 5.216 0 005.21 5.21h29.995a5.216 5.216 0 005.21-5.21V5.893a5.216 5.216 0 00-5.21-5.21zm3.63 35.205a3.635 3.635 0 01-3.63 3.63H6.039a3.635 3.635 0 01-3.631-3.63V5.893a3.635 3.635 0 013.63-3.631h29.996a3.635 3.635 0 013.63 3.63v29.996z" fill="#9A5757"/></svg>